<?xml version="1.0" encoding="UTF-8"?>
<!DOCTYPE svg PUBLIC "-//W3C//DTD SVG 1.1//EN" "http://www.w3.org/Graphics/SVG/1.1/DTD/svg11.dtd">
<!-- Creator: CorelDRAW -->
<svg xmlns="http://www.w3.org/2000/svg" xml:space="preserve" width="100px" height="100px" version="1.1" style="shape-rendering:geometricPrecision; text-rendering:geometricPrecision; image-rendering:optimizeQuality; fill-rule:evenodd; clip-rule:evenodd"
viewBox="0 0 42.59 42.66"
 xmlns:xlink="http://www.w3.org/1999/xlink"
 xmlns:xodm="http://www.corel.com/coreldraw/odm/2003">
 <defs>
  <style type="text/css">
   <![CDATA[
    .fil0 {fill:none}
    .fil2 {fill:#24A966}
    .fil3 {fill:#FEFEFE;fill-rule:nonzero}
    .fil1 {fill:#080600;fill-rule:nonzero}
   ]]>
  </style>
 </defs>
 <g id="Layer_x0020_1">
  <metadata id="CorelCorpID_0Corel-Layer"/>
  <rect class="fil0" width="42.59" height="42.66"/>
  <path class="fil1" d="M8.58 8.41c2.17,-0.13 4.3,-0.57 6.38,-1.41 2.07,-0.84 4.11,-2.09 6.09,-3.85l0.75 -0.67 0.72 0.71c1.53,1.51 3.26,2.79 5.31,3.71 2.07,0.92 4.47,1.49 7.31,1.59l1.02 0.03 0.08 1.1c0.46,6.45 -0.57,12.11 -2.93,17.06 -2.35,4.93 -6.02,9.13 -10.84,12.68l-0.63 0.46 -0.62 -0.45c-4.77,-3.43 -8.54,-7.49 -10.96,-12.4 -2.42,-4.93 -3.46,-10.69 -2.74,-17.48l0.11 -1.03 0.95 -0.05zm7.16 0.88c-1.99,0.81 -4.02,1.28 -6.08,1.49 -0.46,5.83 0.5,10.79 2.59,15.04 2.11,4.31 5.41,7.93 9.58,11.05 4.2,-3.22 7.4,-6.97 9.48,-11.32 2.03,-4.26 2.99,-9.13 2.74,-14.67 -2.7,-0.2 -5.03,-0.8 -7.07,-1.72 -2,-0.9 -3.73,-2.08 -5.26,-3.48 -1.94,1.61 -3.94,2.78 -5.98,3.61z"/>
  <g>
   <path class="fil2" d="M7.57 24.03l4.76 -1.47c0.28,1.59 1.81,4.52 3.26,5.96 3.9,-11.39 14.62,-21.96 24.48,-25.3 -9.48,6.45 -15.98,15.26 -22,35.3 -4.5,-3.2 -8.22,-8.17 -10.5,-14.49z"/>
   <path id="_1" class="fil3" d="M12.44 23.44l-4.75 1.46 -0.23 -1.75 4.76 -1.46 0.67 0.64 -0.45 1.11zm-0.22 -1.75l0.53 -0.16 0.14 0.8 -0.67 -0.64zm2.86 6.41l1.02 0.83 -0.82 0.34 -0.15 -0.15 -0.15 -0.16 -0.15 -0.17 -0.14 -0.18 -0.15 -0.18 -0.14 -0.18 -0.14 -0.2 -0.14 -0.19 -0.14 -0.2 -0.14 -0.21 -0.13 -0.21 -0.14 -0.21 -0.12 -0.21 -0.13 -0.22 -0.12 -0.21 -0.12 -0.22 -0.12 -0.22 -0.11 -0.22 -0.11 -0.22 -0.11 -0.22 -0.1 -0.22 -0.09 -0.22 -0.09 -0.21 -0.09 -0.21 -0.08 -0.22 -0.08 -0.2 -0.07 -0.21 -0.06 -0.21 -0.06 -0.2 -0.05 -0.2 -0.05 -0.2 -0.04 -0.2 1.12 -0.46 0.02 0.11 0.03 0.12 0.03 0.14 0.04 0.14 0.05 0.15 0.06 0.17 0.06 0.16 0.07 0.18 0.07 0.18 0.08 0.18 0.08 0.19 0.09 0.19 0.09 0.2 0.1 0.19 0.1 0.2 0.1 0.2 0.11 0.19 0.11 0.2 0.12 0.19 0.11 0.2 0.12 0.19 0.12 0.18 0.13 0.19 0.12 0.18 0.13 0.17 0.12 0.17 0.13 0.17 0.12 0.15 0.13 0.15 0.13 0.15 0.12 0.13 0.13 0.13 -0.83 0.33zm1.02 0.83l-0.29 0.87 -0.53 -0.53 0.82 -0.34zm24.21 -24.9l-0.47 -1.63 0.36 1.69 -0.92 0.33 -0.91 0.37 -0.92 0.41 -0.92 0.44 -0.92 0.49 -0.92 0.52 -0.91 0.56 -0.92 0.59 -0.9 0.62 -0.9 0.65 -0.89 0.69 -0.88 0.71 -0.86 0.74 -0.85 0.77 -0.84 0.8 -0.83 0.81 -0.8 0.84 -0.79 0.87 -0.76 0.88 -0.75 0.9 -0.72 0.92 -0.69 0.94 -0.67 0.95 -0.65 0.97 -0.61 0.98 -0.58 0.99 -0.55 1 -0.52 1.01 -0.49 1.02 -0.44 1.02 -0.41 1.03 -0.38 1.02 -1.02 -0.83 0.4 -1.1 0.44 -1.09 0.47 -1.08 0.51 -1.07 0.54 -1.06 0.58 -1.05 0.61 -1.03 0.63 -1.02 0.67 -1 0.69 -0.99 0.72 -0.97 0.75 -0.94 0.76 -0.93 0.79 -0.91 0.81 -0.89 0.83 -0.86 0.84 -0.84 0.86 -0.82 0.88 -0.79 0.89 -0.76 0.9 -0.73 0.91 -0.7 0.92 -0.67 0.92 -0.64 0.94 -0.6 0.94 -0.58 0.94 -0.53 0.95 -0.5 0.94 -0.46 0.95 -0.42 0.95 -0.38 0.94 -0.34 0.36 1.68zm-22.48 35.3l0.49 -1.62 -0.77 0.44 0.57 -1.86 0.57 -1.8 0.58 -1.73 0.58 -1.67 0.59 -1.62 0.59 -1.56 0.6 -1.5 0.6 -1.44 0.62 -1.4 0.62 -1.34 0.62 -1.3 0.64 -1.24 0.64 -1.21 0.66 -1.15 0.66 -1.11 0.68 -1.07 0.68 -1.04 0.69 -0.99 0.71 -0.95 0.72 -0.92 0.73 -0.89 0.74 -0.85 0.76 -0.82 0.77 -0.8 0.78 -0.76 0.79 -0.74 0.82 -0.72 0.82 -0.69 0.84 -0.67 0.86 -0.66 0.87 -0.63 0.89 -0.62 0.47 1.63 -0.88 0.61 -0.85 0.62 -0.84 0.64 -0.82 0.65 -0.8 0.68 -0.79 0.69 -0.77 0.72 -0.76 0.75 -0.75 0.76 -0.73 0.8 -0.72 0.83 -0.7 0.85 -0.7 0.89 -0.68 0.93 -0.67 0.96 -0.67 0.99 -0.65 1.04 -0.64 1.08 -0.64 1.12 -0.62 1.17 -0.62 1.21 -0.61 1.26 -0.6 1.31 -0.6 1.36 -0.59 1.41 -0.59 1.47 -0.58 1.53 -0.58 1.58 -0.57 1.65 -0.57 1.7 -0.56 1.77 -0.56 1.83 -0.77 0.44zm0.77 -0.44l-0.25 0.81 -0.52 -0.37 0.77 -0.44zm-11.14 -15.74l0.23 1.75 0.39 -1.31 0.21 0.58 0.22 0.56 0.23 0.56 0.23 0.54 0.24 0.54 0.26 0.54 0.25 0.52 0.27 0.52 0.27 0.51 0.28 0.5 0.29 0.49 0.3 0.48 0.3 0.48 0.31 0.46 0.31 0.46 0.32 0.45 0.33 0.44 0.34 0.43 0.34 0.42 0.34 0.41 0.36 0.41 0.35 0.39 0.37 0.39 0.37 0.38 0.37 0.36 0.38 0.36 0.39 0.35 0.39 0.34 0.4 0.32 0.4 0.32 0.4 0.31 0.42 0.3 -0.49 1.62 -0.43 -0.31 -0.42 -0.32 -0.42 -0.34 -0.42 -0.34 -0.4 -0.35 -0.41 -0.37 -0.4 -0.37 -0.39 -0.39 -0.39 -0.39 -0.38 -0.41 -0.38 -0.41 -0.37 -0.42 -0.36 -0.44 -0.36 -0.44 -0.35 -0.46 -0.34 -0.46 -0.34 -0.47 -0.33 -0.48 -0.33 -0.49 -0.32 -0.5 -0.31 -0.51 -0.3 -0.52 -0.3 -0.53 -0.29 -0.54 -0.28 -0.54 -0.27 -0.56 -0.27 -0.56 -0.26 -0.58 -0.24 -0.58 -0.25 -0.59 -0.23 -0.59 -0.22 -0.61 0.39 -1.31zm-0.39 1.31l-0.39 -1.07 0.78 -0.24 -0.39 1.31z"/>
  </g>
 </g>
</svg>
